<?xml version="1.0" standalone="no"?>
<!DOCTYPE svg PUBLIC "-//W3C//DTD SVG 20010904//EN"
 "http://www.w3.org/TR/2001/REC-SVG-20010904/DTD/svg10.dtd">
<svg version="1.0" xmlns="http://www.w3.org/2000/svg"
 width="1110.000000pt" height="292.000000pt" viewBox="0 0 1110.000000 292.000000"
 preserveAspectRatio="xMidYMid meet">

<g transform="translate(0.000000,292.000000) scale(0.100000,-0.100000)"
fill="whitesmoke" stroke="none">
<path d="M2225 2416 c-88 -35 -160 -65 -159 -67 0 -2 5 -12 10 -21 8 -15 15
-16 46 -6 53 16 87 4 104 -37 21 -52 21 -1349 -1 -1401 -16 -38 -62 -64 -115
-64 -23 0 -30 -4 -30 -20 0 -20 7 -20 270 -20 257 0 270 1 270 19 0 14 -10 19
-50 24 -63 8 -86 20 -107 60 -17 30 -18 90 -21 815 l-3 782 -27 -1 c-15 0 -99
-29 -187 -63z"/>
<path d="M994 2416 c-98 -19 -136 -32 -225 -78 -158 -81 -284 -215 -370 -393
-66 -135 -81 -196 -86 -350 -9 -240 52 -409 205 -576 157 -170 352 -253 623
-266 205 -10 358 17 541 93 l86 36 4 311 c3 260 6 318 20 349 21 47 57 70 119
76 40 4 49 8 49 23 0 18 -14 19 -315 19 -301 0 -315 -1 -315 -19 0 -15 10 -19
56 -25 68 -8 105 -28 130 -70 17 -28 19 -58 22 -332 l4 -302 -80 -31 c-195
-75 -382 -63 -548 34 -215 126 -352 445 -330 768 9 131 36 233 92 347 109 221
301 331 549 317 150 -9 260 -59 353 -162 49 -53 109 -158 132 -227 9 -29 17
-38 33 -38 l22 0 -20 253 c-19 240 -21 252 -41 255 -16 2 -23 -5 -33 -37 -16
-54 -40 -59 -133 -31 -172 53 -214 61 -343 65 -85 3 -155 0 -201 -9z"/>
<path d="M5700 2380 c0 -16 7 -20 33 -20 98 0 170 -52 187 -134 7 -37 10 -250
8 -677 -3 -581 -4 -626 -21 -657 -23 -43 -85 -71 -154 -72 -46 0 -53 -3 -53
-20 0 -20 7 -20 285 -20 271 0 285 1 285 19 0 16 -10 19 -70 23 -75 6 -109 22
-137 65 -17 25 -18 74 -21 632 -1 333 -1 603 2 600 2 -2 138 -294 301 -649
164 -355 302 -655 308 -668 7 -15 18 -22 31 -20 17 2 77 126 327 671 169 368
310 671 313 674 10 10 6 -1096 -4 -1166 -14 -99 -67 -141 -177 -141 -36 0 -43
-3 -43 -20 0 -20 7 -20 345 -20 331 0 345 1 345 19 0 16 -9 19 -62 23 -73 5
-113 22 -142 61 -21 28 -21 34 -21 700 0 577 2 676 15 702 21 42 90 75 157 75
46 0 53 3 53 20 0 19 -7 20 -232 20 l-233 -1 -285 -625 c-156 -344 -287 -627
-290 -629 -3 -2 -136 279 -296 623 l-290 627 -232 3 c-227 2 -232 2 -232 -18z"/>
<path d="M3048 1891 c-144 -37 -248 -148 -248 -262 0 -80 52 -128 123 -115 56
11 70 35 77 135 6 103 22 134 83 162 108 48 233 -2 265 -107 6 -21 14 -75 18
-120 l7 -81 -124 -48 c-245 -95 -388 -182 -447 -270 -35 -53 -46 -108 -40
-193 13 -178 178 -283 355 -226 28 9 94 48 149 89 l99 73 7 -50 c20 -157 172
-170 323 -27 42 39 55 59 55 80 0 16 -2 29 -5 29 -3 0 -25 -16 -51 -35 -53
-40 -86 -44 -108 -13 -14 19 -16 66 -17 308 0 393 -8 495 -44 555 -16 27 -45
58 -72 75 -91 58 -272 76 -405 41z m291 -903 c-108 -91 -232 -118 -301 -66
-74 56 -99 168 -57 255 37 76 122 135 304 209 l80 32 3 -201 3 -202 -32 -27z"/>
<path d="M4105 1896 c-171 -54 -261 -226 -211 -401 26 -86 79 -132 278 -238
90 -48 182 -102 203 -119 43 -36 74 -97 75 -147 0 -45 -37 -107 -80 -134 -49
-31 -165 -31 -232 0 -93 42 -184 161 -203 266 -6 30 -11 37 -31 37 l-24 0 0
-195 c0 -182 1 -195 19 -205 26 -13 31 -13 31 4 0 7 7 19 16 27 13 10 32 9
112 -11 191 -46 306 -37 417 34 100 65 148 148 149 261 1 57 -4 80 -27 127
-44 89 -108 139 -292 228 -191 93 -240 127 -266 183 -25 56 -24 97 4 137 37
57 80 75 172 74 143 0 220 -65 271 -226 15 -49 21 -58 41 -58 l23 0 0 185 c0
181 0 185 -21 185 -12 0 -30 -12 -42 -26 -23 -29 -29 -29 -156 6 -84 22 -166
25 -226 6z"/>
<path d="M5055 1896 c-171 -54 -261 -226 -211 -401 26 -86 79 -132 278 -238
90 -48 182 -102 203 -119 43 -36 74 -97 75 -147 0 -45 -37 -107 -80 -134 -49
-31 -165 -31 -232 0 -93 42 -184 161 -203 266 -6 30 -11 37 -31 37 l-24 0 0
-195 c0 -182 1 -195 19 -205 26 -13 31 -13 31 4 0 7 7 19 16 27 13 10 32 9
112 -11 191 -46 306 -37 417 34 100 65 148 148 149 261 1 57 -4 80 -27 127
-44 89 -108 139 -292 228 -191 93 -240 127 -266 183 -25 56 -24 97 4 137 37
57 80 75 172 74 143 0 220 -65 271 -226 15 -49 21 -58 41 -58 l23 0 0 185 c0
181 0 185 -21 185 -12 0 -30 -12 -42 -26 -23 -29 -29 -29 -156 6 -84 22 -166
25 -226 6z"/>
<path d="M8218 1891 c-144 -37 -248 -148 -248 -262 0 -80 52 -128 123 -115 56
11 70 35 77 135 6 103 22 134 83 162 108 48 233 -2 265 -107 6 -21 14 -75 18
-120 l7 -81 -124 -48 c-245 -95 -388 -182 -447 -270 -35 -53 -46 -108 -40
-193 13 -178 178 -283 355 -226 28 9 94 48 149 89 l99 73 7 -50 c20 -157 172
-170 323 -27 42 39 55 59 55 80 0 16 -2 29 -5 29 -3 0 -25 -16 -51 -35 -53
-40 -86 -44 -108 -13 -14 19 -16 66 -17 308 0 393 -8 495 -44 555 -16 27 -45
58 -72 75 -91 58 -272 76 -405 41z m291 -903 c-108 -91 -232 -118 -301 -66
-74 56 -99 168 -57 255 37 76 122 135 304 209 l80 32 3 -201 3 -202 -32 -27z"/>
<path d="M9275 1896 c-171 -54 -261 -226 -211 -401 26 -86 79 -132 278 -238
90 -48 182 -102 203 -119 43 -36 74 -97 75 -147 0 -45 -37 -107 -80 -134 -49
-31 -165 -31 -232 0 -93 42 -184 161 -203 266 -6 30 -11 37 -31 37 l-24 0 0
-195 c0 -182 1 -195 19 -205 26 -13 31 -13 31 4 0 7 7 19 16 27 13 10 32 9
112 -11 191 -46 306 -37 417 34 100 65 148 148 149 261 1 57 -4 80 -27 127
-44 89 -108 139 -292 228 -191 93 -240 127 -266 183 -25 56 -24 97 4 137 37
57 80 75 172 74 143 0 220 -65 271 -226 15 -49 21 -58 41 -58 l23 0 0 185 c0
181 0 185 -21 185 -12 0 -30 -12 -42 -26 -23 -29 -29 -29 -156 6 -84 22 -166
25 -226 6z"/>
<path d="M10225 1896 c-171 -54 -261 -226 -211 -401 26 -86 79 -132 278 -238
90 -48 182 -102 203 -119 43 -36 74 -97 75 -147 0 -45 -37 -107 -80 -134 -49
-31 -165 -31 -232 0 -93 42 -184 161 -203 266 -6 30 -11 37 -31 37 l-24 0 0
-195 c0 -182 1 -195 19 -205 26 -13 31 -13 31 4 0 7 7 19 16 27 13 10 32 9
112 -11 191 -46 306 -37 417 34 100 65 148 148 149 261 1 57 -4 80 -27 127
-44 89 -108 139 -292 228 -191 93 -240 127 -266 183 -25 56 -24 97 4 137 37
57 80 75 172 74 143 0 220 -65 271 -226 15 -49 21 -58 41 -58 l23 0 0 185 c0
181 0 185 -21 185 -12 0 -30 -12 -42 -26 -23 -29 -29 -29 -156 6 -84 22 -166
25 -226 6z"/>
</g>
</svg>
